<svg width="142" height="37" viewBox="0 0 142 37" fill="none" xmlns="http://www.w3.org/2000/svg">
<path d="M0 0H142V37H0V0Z" fill="#FFC700"/>
<path d="M51.1338 21.4624H53.3237C53.2798 22.1802 53.082 22.8174 52.7305 23.374C52.3838 23.9307 51.8979 24.3652 51.2729 24.6777C50.6528 24.9902 49.9058 25.1465 49.0317 25.1465C48.3481 25.1465 47.7354 25.0293 47.1934 24.7949C46.6514 24.5557 46.1875 24.2139 45.8018 23.7695C45.4209 23.3252 45.1304 22.7881 44.9302 22.1582C44.73 21.5283 44.6299 20.8228 44.6299 20.0415V19.3018C44.6299 18.5205 44.7324 17.8149 44.9375 17.1851C45.1475 16.5503 45.4453 16.0107 45.8311 15.5664C46.2217 15.1221 46.688 14.7803 47.23 14.541C47.772 14.3018 48.3774 14.1821 49.0464 14.1821C49.9351 14.1821 50.6846 14.3433 51.2949 14.6655C51.9102 14.9878 52.3862 15.4321 52.7231 15.9985C53.0649 16.5649 53.27 17.2095 53.3384 17.9321H51.1411C51.1167 17.5024 51.0312 17.1387 50.8848 16.8408C50.7383 16.5381 50.5161 16.311 50.2183 16.1597C49.9253 16.0034 49.5347 15.9253 49.0464 15.9253C48.6802 15.9253 48.3604 15.9937 48.0869 16.1304C47.8135 16.2671 47.584 16.4746 47.3984 16.7529C47.2129 17.0312 47.0737 17.3828 46.981 17.8076C46.8931 18.2275 46.8491 18.7207 46.8491 19.2871V20.0415C46.8491 20.5933 46.8906 21.0791 46.9736 21.499C47.0566 21.9141 47.1836 22.2656 47.3545 22.5537C47.5303 22.8369 47.7549 23.0518 48.0283 23.1982C48.3066 23.3398 48.6411 23.4106 49.0317 23.4106C49.4907 23.4106 49.8691 23.3374 50.167 23.1909C50.4648 23.0444 50.6919 22.8271 50.8481 22.5391C51.0093 22.251 51.1045 21.8921 51.1338 21.4624ZM54.2979 21.1182V20.9644C54.2979 20.3833 54.3809 19.8486 54.5469 19.3604C54.7129 18.8672 54.9546 18.4399 55.272 18.0786C55.5894 17.7173 55.98 17.4365 56.4438 17.2363C56.9077 17.0312 57.4399 16.9287 58.0405 16.9287C58.6411 16.9287 59.1758 17.0312 59.6445 17.2363C60.1133 17.4365 60.5063 17.7173 60.8237 18.0786C61.146 18.4399 61.3901 18.8672 61.5562 19.3604C61.7222 19.8486 61.8052 20.3833 61.8052 20.9644V21.1182C61.8052 21.6943 61.7222 22.229 61.5562 22.7222C61.3901 23.2104 61.146 23.6377 60.8237 24.0039C60.5063 24.3652 60.1157 24.646 59.6519 24.8462C59.188 25.0464 58.6558 25.1465 58.0552 25.1465C57.4546 25.1465 56.9199 25.0464 56.4512 24.8462C55.9873 24.646 55.5942 24.3652 55.272 24.0039C54.9546 23.6377 54.7129 23.2104 54.5469 22.7222C54.3809 22.229 54.2979 21.6943 54.2979 21.1182ZM56.4072 20.9644V21.1182C56.4072 21.4502 56.4365 21.7603 56.4951 22.0483C56.5537 22.3364 56.6465 22.5903 56.7734 22.8101C56.9053 23.0249 57.0762 23.1934 57.2861 23.3154C57.4961 23.4375 57.7524 23.4985 58.0552 23.4985C58.3481 23.4985 58.5996 23.4375 58.8096 23.3154C59.0195 23.1934 59.188 23.0249 59.3149 22.8101C59.4419 22.5903 59.5347 22.3364 59.5933 22.0483C59.6567 21.7603 59.6885 21.4502 59.6885 21.1182V20.9644C59.6885 20.6421 59.6567 20.3394 59.5933 20.0562C59.5347 19.7681 59.4395 19.5142 59.3076 19.2944C59.1807 19.0698 59.0122 18.894 58.8022 18.7671C58.5923 18.6401 58.3384 18.5767 58.0405 18.5767C57.7427 18.5767 57.4888 18.6401 57.2788 18.7671C57.0737 18.894 56.9053 19.0698 56.7734 19.2944C56.6465 19.5142 56.5537 19.7681 56.4951 20.0562C56.4365 20.3394 56.4072 20.6421 56.4072 20.9644ZM65.167 18.7671V25H63.0576V17.0752H65.0352L65.167 18.7671ZM64.8594 20.7593H64.2881C64.2881 20.1733 64.3638 19.646 64.5151 19.1772C64.6665 18.7036 64.8789 18.3008 65.1523 17.9688C65.4258 17.6318 65.7505 17.3755 66.1265 17.1997C66.5073 17.019 66.9321 16.9287 67.4009 16.9287C67.772 16.9287 68.1113 16.9824 68.4189 17.0898C68.7266 17.1973 68.9902 17.3682 69.21 17.6025C69.4346 17.8369 69.6055 18.147 69.7227 18.5327C69.8447 18.9185 69.9058 19.3896 69.9058 19.9463V25H67.7817V19.939C67.7817 19.5874 67.7329 19.314 67.6353 19.1187C67.5376 18.9233 67.3936 18.7866 67.2031 18.7085C67.0176 18.6255 66.7881 18.584 66.5146 18.584C66.2314 18.584 65.9849 18.6401 65.7749 18.7524C65.5698 18.8647 65.3989 19.021 65.2622 19.2212C65.1304 19.4165 65.0303 19.646 64.9619 19.9097C64.8936 20.1733 64.8594 20.4565 64.8594 20.7593ZM75.3916 17.0752V18.5693H70.7773V17.0752H75.3916ZM71.9199 15.1196H74.0293V22.6123C74.0293 22.8418 74.0586 23.0176 74.1172 23.1396C74.1807 23.2617 74.2734 23.3472 74.3955 23.396C74.5176 23.4399 74.6714 23.4619 74.8569 23.4619C74.9888 23.4619 75.106 23.457 75.2085 23.4473C75.3159 23.4326 75.4062 23.418 75.4795 23.4033L75.4868 24.9561C75.3062 25.0146 75.1108 25.061 74.9009 25.0952C74.6909 25.1294 74.459 25.1465 74.2051 25.1465C73.7412 25.1465 73.3359 25.0708 72.9893 24.9194C72.6475 24.7632 72.3838 24.5142 72.1982 24.1724C72.0127 23.8306 71.9199 23.3813 71.9199 22.8247V15.1196ZM80.8701 23.2129V19.6826C80.8701 19.4287 80.8286 19.2114 80.7456 19.0308C80.6626 18.8452 80.5332 18.7012 80.3574 18.5986C80.1865 18.4961 79.9644 18.4448 79.6909 18.4448C79.4565 18.4448 79.2539 18.4863 79.083 18.5693C78.9121 18.6475 78.7803 18.7622 78.6875 18.9136C78.5947 19.0601 78.5483 19.2334 78.5483 19.4336H76.439C76.439 19.0967 76.5171 18.7769 76.6733 18.4741C76.8296 18.1714 77.0566 17.9053 77.3545 17.6758C77.6523 17.4414 78.0063 17.2583 78.4165 17.1265C78.8315 16.9946 79.2954 16.9287 79.8081 16.9287C80.4233 16.9287 80.9702 17.0312 81.4487 17.2363C81.9272 17.4414 82.3032 17.749 82.5767 18.1592C82.855 18.5693 82.9941 19.082 82.9941 19.6973V23.0884C82.9941 23.5229 83.021 23.8794 83.0747 24.1577C83.1284 24.4312 83.2065 24.6704 83.3091 24.8755V25H81.1777C81.0752 24.7852 80.9971 24.5166 80.9434 24.1943C80.8945 23.8672 80.8701 23.54 80.8701 23.2129ZM81.1484 20.1733L81.1631 21.3672H79.9839C79.7056 21.3672 79.4639 21.3989 79.2588 21.4624C79.0537 21.5259 78.8853 21.6162 78.7534 21.7334C78.6216 21.8457 78.5239 21.9775 78.4604 22.1289C78.4019 22.2803 78.3726 22.4463 78.3726 22.627C78.3726 22.8076 78.4141 22.9712 78.4971 23.1177C78.5801 23.2593 78.6997 23.3716 78.856 23.4546C79.0122 23.5327 79.1953 23.5718 79.4053 23.5718C79.7227 23.5718 79.9985 23.5083 80.2329 23.3813C80.4673 23.2544 80.6479 23.0981 80.7749 22.9126C80.9067 22.7271 80.9751 22.5513 80.98 22.3853L81.5366 23.2788C81.4585 23.479 81.3511 23.6865 81.2144 23.9014C81.0825 24.1162 80.9141 24.3188 80.709 24.5093C80.5039 24.6948 80.2573 24.8486 79.9692 24.9707C79.6812 25.0879 79.3394 25.1465 78.9438 25.1465C78.4409 25.1465 77.9844 25.0464 77.5742 24.8462C77.1689 24.6411 76.8467 24.3604 76.6074 24.0039C76.373 23.6426 76.2559 23.2324 76.2559 22.7734C76.2559 22.3584 76.334 21.9897 76.4902 21.6675C76.6465 21.3452 76.876 21.0742 77.1787 20.8545C77.4863 20.6299 77.8696 20.4614 78.3286 20.3491C78.7876 20.2319 79.3198 20.1733 79.9253 20.1733H81.1484ZM88.502 17.0752V18.5693H83.8877V17.0752H88.502ZM85.0303 15.1196H87.1396V22.6123C87.1396 22.8418 87.1689 23.0176 87.2275 23.1396C87.291 23.2617 87.3838 23.3472 87.5059 23.396C87.6279 23.4399 87.7817 23.4619 87.9673 23.4619C88.0991 23.4619 88.2163 23.457 88.3188 23.4473C88.4263 23.4326 88.5166 23.418 88.5898 23.4033L88.5972 24.9561C88.4165 25.0146 88.2212 25.061 88.0112 25.0952C87.8013 25.1294 87.5693 25.1465 87.3154 25.1465C86.8516 25.1465 86.4463 25.0708 86.0996 24.9194C85.7578 24.7632 85.4941 24.5142 85.3086 24.1724C85.123 23.8306 85.0303 23.3813 85.0303 22.8247V15.1196ZM89.1758 21.1182V20.9644C89.1758 20.3833 89.2588 19.8486 89.4248 19.3604C89.5908 18.8672 89.8325 18.4399 90.1499 18.0786C90.4673 17.7173 90.8579 17.4365 91.3218 17.2363C91.7856 17.0312 92.3179 16.9287 92.9185 16.9287C93.519 16.9287 94.0537 17.0312 94.5225 17.2363C94.9912 17.4365 95.3843 17.7173 95.7017 18.0786C96.0239 18.4399 96.2681 18.8672 96.4341 19.3604C96.6001 19.8486 96.6831 20.3833 96.6831 20.9644V21.1182C96.6831 21.6943 96.6001 22.229 96.4341 22.7222C96.2681 23.2104 96.0239 23.6377 95.7017 24.0039C95.3843 24.3652 94.9937 24.646 94.5298 24.8462C94.0659 25.0464 93.5337 25.1465 92.9331 25.1465C92.3325 25.1465 91.7979 25.0464 91.3291 24.8462C90.8652 24.646 90.4722 24.3652 90.1499 24.0039C89.8325 23.6377 89.5908 23.2104 89.4248 22.7222C89.2588 22.229 89.1758 21.6943 89.1758 21.1182ZM91.2852 20.9644V21.1182C91.2852 21.4502 91.3145 21.7603 91.373 22.0483C91.4316 22.3364 91.5244 22.5903 91.6514 22.8101C91.7832 23.0249 91.9541 23.1934 92.1641 23.3154C92.374 23.4375 92.6304 23.4985 92.9331 23.4985C93.2261 23.4985 93.4775 23.4375 93.6875 23.3154C93.8975 23.1934 94.0659 23.0249 94.1929 22.8101C94.3198 22.5903 94.4126 22.3364 94.4712 22.0483C94.5347 21.7603 94.5664 21.4502 94.5664 21.1182V20.9644C94.5664 20.6421 94.5347 20.3394 94.4712 20.0562C94.4126 19.7681 94.3174 19.5142 94.1855 19.2944C94.0586 19.0698 93.8901 18.894 93.6802 18.7671C93.4702 18.6401 93.2163 18.5767 92.9185 18.5767C92.6206 18.5767 92.3667 18.6401 92.1567 18.7671C91.9517 18.894 91.7832 19.0698 91.6514 19.2944C91.5244 19.5142 91.4316 19.7681 91.373 20.0562C91.3145 20.3394 91.2852 20.6421 91.2852 20.9644Z" fill="black"/>
</svg>
