<svg width="142" height="37" viewBox="0 0 142 37" fill="none" xmlns="http://www.w3.org/2000/svg">
<path d="M0 0H142V37H0V0Z" fill="#00A0FF"/>
<path d="M55.2886 14.3359V25H53.0986V14.3359H55.2886ZM59.2803 18.7671V25H57.1709V17.0752H59.1484L59.2803 18.7671ZM58.9727 20.7593H58.4014C58.4014 20.1733 58.4771 19.646 58.6284 19.1772C58.7798 18.7036 58.9922 18.3008 59.2656 17.9688C59.5391 17.6318 59.8638 17.3755 60.2397 17.1997C60.6206 17.019 61.0454 16.9287 61.5142 16.9287C61.8853 16.9287 62.2246 16.9824 62.5322 17.0898C62.8398 17.1973 63.1035 17.3682 63.3232 17.6025C63.5479 17.8369 63.7188 18.147 63.8359 18.5327C63.958 18.9185 64.019 19.3896 64.019 19.9463V25H61.895V19.939C61.895 19.5874 61.8462 19.314 61.7485 19.1187C61.6509 18.9233 61.5068 18.7866 61.3164 18.7085C61.1309 18.6255 60.9014 18.584 60.6279 18.584C60.3447 18.584 60.0981 18.6401 59.8882 18.7524C59.6831 18.8647 59.5122 19.021 59.3755 19.2212C59.2437 19.4165 59.1436 19.646 59.0752 19.9097C59.0068 20.1733 58.9727 20.4565 58.9727 20.7593ZM67.9009 17.0752V25H65.7842V17.0752H67.9009ZM65.8501 16.1157L67.2856 13.8599H69.5781L67.564 16.1157H65.8501ZM72.9985 23.4985C73.2573 23.4985 73.4868 23.4497 73.687 23.3521C73.8872 23.2495 74.0435 23.1079 74.1558 22.9272C74.2729 22.7417 74.334 22.5244 74.3389 22.2754H76.3237C76.3188 22.832 76.1699 23.3276 75.877 23.7622C75.584 24.1919 75.1909 24.5312 74.6978 24.7803C74.2046 25.0244 73.6528 25.1465 73.0425 25.1465C72.4272 25.1465 71.8901 25.0439 71.4312 24.8389C70.9771 24.6338 70.5986 24.3506 70.2959 23.9893C69.9932 23.623 69.7661 23.1982 69.6147 22.7148C69.4634 22.2266 69.3877 21.7041 69.3877 21.1475V20.9351C69.3877 20.3735 69.4634 19.8511 69.6147 19.3677C69.7661 18.8794 69.9932 18.4546 70.2959 18.0933C70.5986 17.7271 70.9771 17.4414 71.4312 17.2363C71.8853 17.0312 72.4175 16.9287 73.0278 16.9287C73.6772 16.9287 74.2461 17.0532 74.7344 17.3022C75.2275 17.5513 75.6133 17.9077 75.8916 18.3716C76.1748 18.8306 76.3188 19.375 76.3237 20.0049H74.3389C74.334 19.7412 74.2778 19.502 74.1704 19.2871C74.0679 19.0723 73.9165 18.9014 73.7163 18.7744C73.521 18.6426 73.2793 18.5767 72.9912 18.5767C72.6836 18.5767 72.4321 18.6426 72.2368 18.7744C72.0415 18.9014 71.8901 19.0771 71.7827 19.3018C71.6753 19.5215 71.5996 19.7729 71.5557 20.0562C71.5166 20.3345 71.4971 20.6274 71.4971 20.9351V21.1475C71.4971 21.4551 71.5166 21.7505 71.5557 22.0337C71.5947 22.3169 71.668 22.5684 71.7754 22.7881C71.8877 23.0078 72.0415 23.1812 72.2368 23.3081C72.4321 23.4351 72.686 23.4985 72.9985 23.4985ZM79.7734 17.0752V25H77.6567V17.0752H79.7734ZM77.5249 15.0098C77.5249 14.7021 77.6323 14.4482 77.8472 14.248C78.062 14.0479 78.3501 13.9478 78.7114 13.9478C79.0679 13.9478 79.3535 14.0479 79.5684 14.248C79.7881 14.4482 79.8979 14.7021 79.8979 15.0098C79.8979 15.3174 79.7881 15.5713 79.5684 15.7715C79.3535 15.9717 79.0679 16.0718 78.7114 16.0718C78.3501 16.0718 78.062 15.9717 77.8472 15.7715C77.6323 15.5713 77.5249 15.3174 77.5249 15.0098ZM81.1797 21.1182V20.9644C81.1797 20.3833 81.2627 19.8486 81.4287 19.3604C81.5947 18.8672 81.8364 18.4399 82.1538 18.0786C82.4712 17.7173 82.8618 17.4365 83.3257 17.2363C83.7896 17.0312 84.3218 16.9287 84.9224 16.9287C85.5229 16.9287 86.0576 17.0312 86.5264 17.2363C86.9951 17.4365 87.3882 17.7173 87.7056 18.0786C88.0278 18.4399 88.272 18.8672 88.438 19.3604C88.604 19.8486 88.687 20.3833 88.687 20.9644V21.1182C88.687 21.6943 88.604 22.229 88.438 22.7222C88.272 23.2104 88.0278 23.6377 87.7056 24.0039C87.3882 24.3652 86.9976 24.646 86.5337 24.8462C86.0698 25.0464 85.5376 25.1465 84.937 25.1465C84.3364 25.1465 83.8018 25.0464 83.333 24.8462C82.8691 24.646 82.4761 24.3652 82.1538 24.0039C81.8364 23.6377 81.5947 23.2104 81.4287 22.7222C81.2627 22.229 81.1797 21.6943 81.1797 21.1182ZM83.2891 20.9644V21.1182C83.2891 21.4502 83.3184 21.7603 83.377 22.0483C83.4355 22.3364 83.5283 22.5903 83.6553 22.8101C83.7871 23.0249 83.958 23.1934 84.168 23.3154C84.3779 23.4375 84.6343 23.4985 84.937 23.4985C85.23 23.4985 85.4814 23.4375 85.6914 23.3154C85.9014 23.1934 86.0698 23.0249 86.1968 22.8101C86.3237 22.5903 86.4165 22.3364 86.4751 22.0483C86.5386 21.7603 86.5703 21.4502 86.5703 21.1182V20.9644C86.5703 20.6421 86.5386 20.3394 86.4751 20.0562C86.4165 19.7681 86.3213 19.5142 86.1895 19.2944C86.0625 19.0698 85.894 18.894 85.6841 18.7671C85.4741 18.6401 85.2202 18.5767 84.9224 18.5767C84.6245 18.5767 84.3706 18.6401 84.1606 18.7671C83.9556 18.894 83.7871 19.0698 83.6553 19.2944C83.5283 19.5142 83.4355 19.7681 83.377 20.0562C83.3184 20.3394 83.2891 20.6421 83.2891 20.9644Z" fill="black"/>
</svg>
